<?xml version="1.0" standalone="no"?>
<!DOCTYPE svg PUBLIC "-//W3C//DTD SVG 20010904//EN"
 "http://www.w3.org/TR/2001/REC-SVG-20010904/DTD/svg10.dtd">
<svg version="1.0" xmlns="http://www.w3.org/2000/svg"
 width="50pt" height="100pt" viewBox="0 0 1011.000000 1280.000000"
 preserveAspectRatio="xMidYMid meet">
<g transform="translate(0.000000,1280.000000) scale(0.100000,-0.100000)"
fill="#aaa" opacity="0.5" stroke="none">
<path d="M0 6445 l0 -6355 548 2 547 3 5 175 5 175 190 0 c194 -1 310 -9 335
-25 12 -7 11 -25 -3 -122 -22 -148 -22 -168 2 -168 21 0 23 9 42 155 6 55 18
106 25 114 19 21 154 -25 279 -94 181 -101 275 -134 377 -135 27 0 41 -6 50
-20 7 -11 20 -20 28 -20 9 0 23 9 33 20 14 17 29 20 95 20 43 0 152 7 243 16
90 9 254 17 363 18 l199 1 15 -43 c10 -31 19 -42 31 -40 12 3 15 13 13 45 -4
50 -12 46 158 63 63 6 173 20 245 30 91 13 134 15 142 8 8 -6 13 -35 13 -74 0
-57 2 -64 20 -64 18 0 20 7 20 69 0 43 5 72 13 79 19 15 53 20 347 47 151 14
318 32 370 39 52 8 98 12 104 9 5 -4 6 -54 3 -124 -6 -112 -6 -119 12 -119 26
0 29 12 37 140 4 61 10 113 15 116 24 14 770 100 794 90 16 -6 17 -18 10 -129
-9 -163 11 -250 49 -218 11 9 13 19 5 37 -12 32 -12 294 0 313 6 10 64 22 183
37 190 26 333 31 344 13 4 -7 10 -68 15 -138 13 -202 24 -261 48 -261 26 0 29
7 20 48 -15 66 -33 342 -23 352 15 15 765 -9 782 -25 11 -10 9 -38 -12 -161
-35 -212 -35 -208 -8 -212 12 -2 22 1 22 7 0 23 59 354 65 359 3 3 170 5 372
5 l368 0 -2 -56 c-1 -30 -16 -110 -33 -177 -17 -67 -28 -126 -25 -131 4 -5 14
-9 24 -9 15 0 24 22 49 123 17 67 34 152 37 190 4 37 12 70 17 73 16 10 278
33 443 40 88 3 220 12 294 20 74 8 138 11 143 6 5 -5 1 -28 -7 -53 -9 -24 -29
-102 -45 -172 -16 -71 -40 -148 -54 -172 -24 -43 -20 -65 10 -65 20 0 60 97
83 200 37 164 72 270 95 282 44 24 620 18 644 -7 4 -3 34 -132 69 -287 34
-154 65 -283 68 -286 6 -7 312 94 327 107 4 3 3 24 -2 46 -6 22 -105 468 -220
990 -116 523 -238 1067 -270 1210 -33 143 -65 289 -73 325 -63 292 -444 1941
-646 2800 -960 4079 -1603 6386 -1867 6700 -169 200 -1371 336 -3624 410 -315
10 -1138 27 -1850 38 l-435 7 -3 73 -3 72 -549 0 -550 0 0 -6355z m1833 5766
c9 -9 -16 -362 -27 -379 -3 -6 -29 -15 -56 -22 -31 -7 -75 -30 -112 -58 -124
-90 -215 -115 -413 -110 l-120 3 -3 294 -2 294 362 -7 c199 -3 366 -10 371
-15z m642 -7 c138 -3 245 -10 253 -16 9 -8 12 -67 12 -233 0 -185 -3 -225 -15
-235 -19 -16 -92 -7 -253 31 -200 48 -344 69 -470 69 -65 0 -123 4 -130 9 -12
7 -12 37 -2 177 6 93 16 180 21 193 l10 23 167 -6 c92 -3 275 -9 407 -12z
m800 -22 l200 -7 5 -235 c3 -129 2 -242 -2 -251 -6 -14 -14 -15 -45 -8 -176
42 -295 52 -483 40 -96 -6 -149 -5 -157 1 -17 14 -19 448 -2 465 7 7 58 9 147
6 75 -3 227 -8 337 -11z m700 -22 c160 -6 300 -15 313 -20 l22 -10 0 -360 c0
-404 4 -383 -73 -360 -23 6 -163 56 -312 110 -148 54 -294 105 -324 114 -30 9
-58 22 -63 29 -9 15 -11 491 -1 500 9 10 101 9 438 -3z m844 -40 c253 -14 358
-23 367 -32 35 -36 43 -469 12 -643 l-13 -70 -90 -8 c-132 -12 -684 -3 -717
11 l-28 12 0 368 c0 203 3 372 7 375 10 10 76 9 462 -13z m854 -55 c82 -7 152
-16 157 -21 10 -11 17 -600 7 -610 -4 -4 -80 -18 -169 -30 -194 -28 -428 -33
-428 -10 0 8 7 74 16 148 16 134 14 348 -5 478 -5 30 -6 59 -3 64 5 9 195 1
425 -19z m562 -55 c187 -25 345 -54 375 -70 23 -12 22 18 1 -405 l-6 -130 -25
1 c-14 0 -74 6 -134 12 -60 7 -205 12 -322 12 -157 0 -214 3 -221 13 -11 13
-25 561 -16 586 7 17 114 11 348 -19z m495 -122 c45 -48 230 -475 230 -532 0
-17 -6 -18 -87 -13 -49 3 -115 14 -148 25 l-60 18 3 250 c1 137 4 255 7 262 7
19 32 14 55 -10z m-4929 -330 c-2 -190 5 -328 25 -524 l6 -61 -179 -6 c-98 -4
-248 -16 -333 -27 -85 -11 -170 -20 -188 -20 l-32 0 2 343 3 342 155 6 c207 8
276 27 387 111 56 42 132 72 147 57 6 -5 9 -100 7 -221z m431 213 c62 -11 169
-33 238 -50 69 -16 154 -33 190 -36 36 -4 68 -12 72 -19 4 -6 8 -138 8 -292 0
-311 4 -294 -65 -294 -52 0 -112 -26 -183 -80 -111 -83 -164 -93 -354 -65 -57
8 -136 18 -177 22 -89 9 -83 -2 -101 199 -13 149 -18 604 -6 623 12 19 248 14
378 -8z m1003 -81 c39 -5 109 -19 158 -31 72 -18 88 -25 91 -43 3 -11 7 -86
10 -166 3 -80 9 -201 12 -269 l7 -124 -194 6 c-262 8 -512 26 -524 38 -14 14
-20 558 -6 572 21 21 331 33 446 17z m455 -119 c63 -21 207 -72 320 -113 113
-40 225 -80 250 -88 l45 -15 7 -185 c4 -102 3 -189 -2 -194 -4 -4 -56 3 -117
18 -148 35 -295 56 -405 57 -51 1 -122 4 -158 8 l-65 6 -7 70 c-10 103 -26
459 -21 468 8 13 38 7 153 -32z m2147 -179 c7 -4 16 -67 23 -167 6 -88 15
-221 20 -295 13 -174 13 -267 0 -275 -5 -3 -72 6 -147 20 -306 57 -548 107
-556 114 -4 4 6 126 21 271 25 222 32 266 48 277 12 9 55 13 138 14 93 0 345
28 436 48 3 0 10 -3 17 -7z m644 -6 c59 -7 112 -16 118 -20 7 -5 11 -54 11
-146 0 -160 15 -362 36 -469 10 -54 11 -78 3 -88 -22 -26 -171 -65 -269 -70
-98 -5 -402 29 -426 48 -7 6 -14 62 -19 137 -3 70 -13 215 -21 322 -8 107 -14
219 -14 248 l0 52 238 0 c136 -1 282 -6 343 -14z m-1692 -51 c236 -1 386 -5
388 -10 5 -16 -52 -514 -60 -521 -19 -19 -703 121 -735 150 -19 18 -38 361
-21 382 8 9 18 12 28 7 9 -4 189 -8 400 -8z m1986 -9 c39 -9 97 -16 130 -16
33 0 65 -4 71 -8 11 -7 164 -463 164 -489 0 -17 -19 -20 -85 -15 -91 7 -190
-12 -238 -45 -78 -55 -98 -66 -107 -57 -23 23 -42 199 -47 423 l-6 234 24 -6
c13 -3 56 -12 94 -21z m-4016 -406 c6 -63 30 -249 53 -413 34 -244 39 -300 28
-307 -7 -4 -47 -13 -88 -19 -41 -6 -143 -28 -226 -48 -129 -32 -168 -37 -270
-37 l-120 -1 -6 30 c-4 17 -13 65 -19 108 -15 94 -34 152 -106 317 -51 119
-94 250 -109 333 -9 49 0 52 116 38 51 -6 139 -16 194 -23 129 -15 190 -3 265
52 30 22 73 51 95 65 47 29 152 48 171 31 6 -6 16 -63 22 -126z m248 129 c73
-5 216 -13 320 -17 l188 -7 7 -55 c4 -30 11 -229 14 -442 6 -359 6 -388 -10
-394 -10 -4 -66 3 -126 15 -143 29 -326 51 -417 51 -39 0 -75 4 -78 10 -6 10
-53 326 -86 575 -19 153 -24 256 -12 268 9 9 47 9 200 -4z m943 -40 c134 -18
345 -64 366 -81 6 -4 14 -36 18 -71 4 -34 25 -188 47 -342 22 -154 43 -328 46
-387 7 -122 10 -117 -75 -98 -24 6 -161 15 -305 20 -219 7 -278 13 -357 32
l-95 24 -2 189 c-1 105 -7 308 -13 452 -7 144 -9 267 -5 273 8 12 253 5 375
-11z m-2116 -85 c9 -8 16 -24 16 -34 0 -45 55 -225 101 -330 28 -63 63 -151
79 -195 31 -89 56 -225 46 -251 -8 -22 -38 -17 -229 40 -84 25 -278 71 -431
101 -154 31 -288 61 -298 66 -17 9 -18 28 -16 287 l3 277 100 11 c55 7 143 17
195 23 147 17 157 18 292 19 103 2 129 -1 142 -14z m2708 -49 c79 -19 235 -51
348 -70 113 -20 210 -41 216 -48 15 -15 -9 -212 -66 -557 -22 -135 -43 -260
-46 -277 -4 -26 -10 -33 -28 -33 -29 0 -442 97 -465 109 -15 8 -19 28 -25 113
-4 57 -24 227 -46 378 -48 337 -57 420 -42 420 6 0 75 -16 154 -35z m2612
-126 c12 -13 69 -200 182 -597 31 -109 43 -167 36 -174 -17 -17 -492 -114
-516 -105 -10 4 -14 56 -19 209 -6 234 -19 312 -77 451 -22 52 -40 100 -40
105 0 6 20 24 44 41 25 16 58 40 75 52 41 30 89 38 204 35 68 -2 102 -7 111
-17z m-1710 -48 c138 -27 293 -57 344 -66 82 -15 94 -20 103 -42 10 -27 10
-322 0 -498 l-6 -110 -115 -7 c-187 -12 -276 -27 -384 -65 -87 -31 -117 -36
-218 -40 -107 -5 -118 -4 -125 13 -3 9 14 144 40 298 26 155 54 340 62 411 17
146 20 155 36 155 7 0 125 -22 263 -49z m1264 -164 c69 -169 76 -209 76 -452
l1 -220 -80 -6 c-115 -9 -227 6 -420 56 -131 34 -294 65 -342 65 -2 0 -3 137
-3 305 0 259 2 306 15 311 8 3 88 -4 177 -16 194 -27 303 -23 423 13 120 37
115 39 153 -56z m-5274 -317 c161 -33 342 -76 404 -95 61 -20 139 -41 174 -48
53 -11 64 -17 72 -38 13 -39 -3 -417 -19 -433 -8 -7 -49 -15 -97 -19 -48 -3
-165 -26 -268 -52 -214 -53 -382 -77 -507 -73 l-88 3 -3 408 c-2 406 -2 407
19 407 11 0 152 -27 313 -60z m1811 -75 c154 -24 277 -52 286 -66 5 -8 7 -57
4 -109 -12 -219 -27 -440 -33 -505 l-7 -69 -40 -9 c-64 -14 -258 1 -410 31
l-140 27 3 354 c2 195 6 359 9 364 7 12 204 2 328 -18z m-381 -130 c10 -153
-4 -529 -21 -546 -10 -10 -136 15 -420 81 -73 16 -160 33 -195 36 -118 10
-106 -18 -100 231 2 120 9 223 13 229 6 7 57 14 127 16 89 4 159 15 292 46
211 49 216 50 260 48 l35 -1 9 -140z m828 34 c66 -16 135 -22 338 -29 249 -8
370 -21 399 -44 29 -22 -9 -637 -40 -656 -6 -4 -50 1 -97 12 -190 42 -343 60
-542 63 l-195 2 -3 34 c-2 18 1 92 7 164 6 71 13 202 17 290 3 88 7 166 10
173 5 16 8 16 106 -9z m1071 -147 c114 -27 210 -51 212 -53 2 -2 5 -154 7
-337 4 -324 4 -332 -15 -332 -22 0 -279 57 -422 94 l-90 23 1 54 c0 30 6 103
12 163 7 60 12 182 12 271 0 89 3 165 8 169 9 10 24 7 275 -52z m1115 35 c12
-13 5 -170 -19 -447 -6 -74 -9 -188 -6 -252 4 -89 2 -118 -8 -122 -14 -5 -123
8 -205 25 -30 6 -173 14 -317 17 -144 4 -265 10 -269 15 -22 21 -41 442 -27
582 l8 80 125 6 c105 4 140 10 215 36 139 48 171 55 295 63 183 11 197 11 208
-3z m239 -11 c37 -8 125 -31 195 -50 136 -37 278 -56 398 -53 l75 2 3 -95 c3
-89 -22 -446 -36 -535 -6 -35 -11 -40 -42 -46 -19 -4 -181 -12 -360 -18 -179
-6 -349 -14 -377 -18 -51 -5 -53 -5 -63 23 -16 41 -14 261 4 477 9 104 16 217
16 251 0 35 3 66 7 69 11 12 109 8 180 -7z m1270 6 c11 -7 51 -141 116 -392
30 -115 36 -155 39 -270 l3 -135 -125 0 c-212 0 -610 18 -616 27 -3 5 2 93 11
196 8 103 19 252 23 331 l7 145 130 23 c72 12 186 36 255 52 144 33 141 33
157 23z m-5324 -447 c-2 -38 -7 -144 -13 -235 -5 -91 -10 -243 -10 -337 0
-131 -3 -173 -12 -174 -7 0 -96 0 -198 1 -141 1 -239 -5 -412 -24 -125 -14
-248 -26 -273 -26 l-45 0 2 368 3 367 140 7 c171 8 229 17 465 73 225 54 221
53 295 51 l60 -1 -2 -70z m322 41 c55 -13 177 -41 270 -61 94 -20 174 -40 179
-45 4 -4 -3 -90 -17 -192 -14 -100 -31 -229 -38 -286 l-12 -103 -89 -60 c-93
-61 -165 -89 -229 -89 -20 0 -91 7 -156 15 -65 9 -137 18 -160 21 -24 3 -43
11 -44 17 -7 158 12 725 27 796 5 23 7 24 87 18 45 -4 127 -17 182 -31z m670
-142 c116 -24 203 -30 427 -34 3 0 9 -48 13 -107 8 -118 31 -221 72 -326 16
-41 23 -71 17 -76 -5 -5 -75 -5 -164 1 -85 5 -254 11 -375 13 l-220 3 2 60 c1
52 46 410 59 470 6 28 10 28 169 -4z m985 -39 c141 -20 329 -60 341 -72 7 -7
3 -60 -10 -159 -11 -82 -23 -179 -27 -215 -4 -37 -10 -72 -14 -78 -5 -9 -48
-9 -171 -2 -90 6 -239 11 -330 11 -121 0 -169 3 -176 13 -17 21 -69 160 -88
232 -11 43 -18 111 -19 175 l-1 105 60 7 c85 9 311 0 435 -17z m596 -126 c93
-23 211 -49 262 -59 52 -10 96 -21 100 -24 7 -8 49 -300 58 -410 l7 -79 -39 7
c-21 4 -142 32 -269 61 -126 30 -261 59 -298 66 -38 6 -71 17 -73 24 -5 12 42
402 52 438 3 9 11 17 19 17 7 0 89 -18 181 -41z m1014 -112 c41 -9 105 -18
142 -22 72 -8 81 -14 92 -60 4 -16 26 -75 48 -130 55 -137 67 -184 75 -302 6
-97 5 -103 -13 -103 -10 0 -129 20 -264 44 -135 25 -324 56 -420 71 -96 15
-180 32 -186 38 -7 7 -19 75 -28 152 -9 77 -23 181 -30 230 -8 50 -10 95 -6
100 12 15 498 0 590 -18z m1090 -11 c0 -6 -11 -96 -24 -201 -13 -104 -28 -261
-32 -348 -3 -87 -10 -160 -14 -162 -12 -8 -549 73 -596 89 -6 3 -14 46 -18
103 -9 130 -28 205 -81 338 -24 61 -46 121 -47 135 -3 23 1 25 47 31 28 4 203
12 390 19 187 7 342 14 343 15 8 7 32 -8 32 -19z m650 5 l155 -6 7 -67 c3 -36
8 -153 10 -260 l3 -193 -65 -13 c-45 -9 -82 -24 -120 -51 -66 -46 -205 -102
-315 -127 -82 -19 -281 -26 -319 -11 -18 7 -19 17 -13 180 6 164 47 533 63
558 7 12 84 11 594 -10z m293 -237 c31 -120 60 -236 64 -257 l6 -38 -64 3 -64
3 -6 65 c-4 36 -10 152 -14 259 -10 258 2 253 78 -35z m-4363 -50 c157 -9 289
-20 294 -24 4 -5 15 -34 23 -67 17 -68 29 -607 16 -738 l-8 -80 -165 1 c-156
1 -180 4 -454 57 -159 31 -293 60 -297 64 -10 10 73 769 85 781 9 8 92 19 166
21 30 1 183 -6 340 -15z m796 -24 c94 -5 178 -12 187 -16 11 -4 17 -18 17 -38
0 -25 -65 -624 -86 -795 l-6 -44 -81 7 c-45 3 -164 6 -264 6 l-181 0 0 358 c1
280 -2 374 -14 437 -9 44 -14 83 -11 88 6 10 233 9 439 -3z m-1363 -46 c-5
-64 -74 -661 -78 -681 -7 -29 -13 -29 -143 2 -140 32 -274 47 -392 44 l-95 -3
0 65 c0 101 37 503 47 516 5 6 24 10 41 8 18 -3 88 -12 156 -21 195 -26 283
-10 398 72 55 39 69 39 66 -2z m1765 -9 c228 -47 533 -122 543 -132 18 -18 31
-261 25 -451 -9 -277 -18 -391 -30 -408 -10 -13 -30 -11 -166 21 -181 42 -463
100 -535 111 -74 10 -78 16 -71 99 13 136 86 760 91 773 6 16 8 16 143 -13z
m-2550 -31 c33 -4 63 -12 66 -19 10 -27 -41 -565 -55 -580 -6 -5 -36 -15 -67
-21 -31 -6 -115 -25 -187 -42 -190 -46 -317 -62 -480 -62 l-145 0 0 334 c0
372 -5 346 72 346 22 0 117 9 211 20 95 11 195 21 222 23 98 7 303 7 363 1z
m3364 -134 c167 -26 591 -101 654 -115 17 -4 23 -14 27 -47 9 -82 -14 -732
-26 -745 -9 -9 -29 -10 -82 -2 -38 5 -203 14 -365 19 -278 9 -405 21 -423 39
-4 4 -3 75 3 157 7 82 11 275 10 429 -3 294 -3 295 4 295 3 0 92 -14 198 -30z
m2240 -85 c8 -51 -8 -637 -20 -755 l-7 -65 -220 -1 c-121 0 -300 -4 -397 -8
-98 -5 -178 -7 -178 -5 -2 16 -15 541 -15 603 l0 80 140 1 c110 1 158 6 224
24 119 32 243 83 301 126 44 33 111 56 150 51 10 -1 17 -18 22 -51z m182 42
c13 -10 46 -125 122 -423 57 -225 104 -419 104 -431 0 -23 0 -23 -177 -23 -98
0 -184 4 -192 9 -12 8 -12 46 -2 252 6 134 11 328 11 430 0 102 3 189 7 192
12 12 109 7 127 -6z m-1503 -117 c96 -16 228 -36 294 -45 78 -11 124 -21 131
-31 15 -19 31 -661 17 -675 -11 -11 -310 -28 -494 -29 -85 0 -131 4 -142 13
-15 11 -16 30 -7 222 5 116 10 289 10 386 0 151 3 189 16 189 1 0 80 -13 175
-30z m-3782 -366 c69 -14 140 -31 159 -37 l34 -12 0 -329 c-1 -180 -3 -330 -5
-333 -3 -2 -101 5 -219 18 -199 20 -264 21 -438 6 l-25 -2 3 105 c3 143 40
560 52 587 6 14 20 23 42 26 72 11 276 -4 397 -29z m-495 7 c3 -5 -1 -72 -9
-149 -8 -77 -19 -207 -25 -289 -5 -81 -12 -178 -16 -215 l-6 -68 -114 -75
c-122 -82 -193 -115 -295 -139 -93 -21 -254 -38 -334 -34 l-70 3 -3 428 -2
427 82 0 c192 0 415 33 678 100 86 21 107 23 114 11z m1061 -123 c236 -45 291
-52 440 -57 l170 -6 -3 -235 c-1 -129 -5 -272 -8 -317 -6 -76 -8 -83 -28 -83
-11 0 -100 13 -196 29 -276 47 -405 61 -540 61 -87 0 -132 4 -144 13 -16 12
-18 39 -19 319 -2 319 1 341 41 332 9 -2 139 -27 287 -56z m1172 -66 c19 -11
20 -24 26 -353 4 -206 3 -347 -2 -352 -6 -6 -44 -3 -98 7 -48 9 -166 25 -261
35 -95 11 -177 23 -184 27 -8 5 -9 88 -4 311 4 168 10 311 12 318 3 8 15 16
27 19 42 9 463 -1 484 -12z m224 -32 c183 -33 603 -131 616 -143 9 -9 6 -59
-12 -216 -31 -262 -54 -414 -63 -423 -11 -11 -646 76 -670 91 -14 8 -35 574
-25 659 7 61 -2 59 154 32z m819 -170 c41 -5 208 -14 370 -20 162 -5 311 -13
330 -18 l35 -8 2 -289 c2 -160 -1 -296 -5 -303 -6 -9 -90 -15 -330 -24 -294
-10 -334 -9 -457 7 -75 10 -143 24 -152 30 -15 11 -14 29 10 211 15 109 31
246 37 304 15 136 13 133 53 126 17 -3 66 -10 107 -16z m2287 -47 c8 -20 -45
-634 -55 -645 -16 -16 -770 47 -789 66 -4 4 3 88 15 189 12 100 25 226 28 279
4 55 12 102 18 108 14 11 126 15 504 18 252 2 273 1 279 -15z m463 -13 c3 -6
42 -156 85 -335 53 -219 76 -328 69 -335 -6 -6 -87 -13 -180 -17 -137 -5 -193
-3 -293 12 -128 19 -154 31 -146 68 2 12 16 155 30 317 15 162 29 298 32 304
8 12 395 -2 403 -14z m-1313 -112 c-9 -167 -45 -441 -60 -450 -7 -4 -79 -8
-162 -8 -82 -1 -208 -5 -280 -9 -100 -7 -133 -6 -143 4 -11 10 -12 65 -5 291
l8 279 195 5 c107 3 253 7 324 8 l129 2 -6 -122z m-4257 -169 c118 -12 221
-26 228 -32 15 -12 17 -461 2 -677 -15 -208 -40 -444 -48 -452 -8 -8 -580 7
-689 18 l-63 6 0 36 c0 37 37 407 64 647 8 72 20 191 26 265 15 172 16 177 42
186 87 27 183 28 438 3z m618 -39 c82 -9 487 -71 560 -86 l22 -4 -1 -353 c0
-413 -10 -625 -28 -637 -7 -4 -115 -10 -240 -13 -156 -3 -268 -12 -361 -26
-140 -22 -295 -27 -319 -12 -12 8 -12 35 3 193 27 291 36 466 36 716 l0 232
115 0 c64 0 159 -5 213 -10z m-1135 -17 c5 -10 -7 -154 -38 -428 -13 -121 -31
-296 -40 -390 -9 -93 -19 -190 -23 -215 l-7 -45 -215 -7 c-118 -3 -276 -8
-350 -10 l-135 -3 0 440 0 440 75 2 c300 9 469 56 639 177 63 45 86 54 94 39z
m1974 -98 c125 -14 303 -42 337 -52 18 -5 19 -15 12 -282 -8 -305 -25 -514
-43 -532 -24 -24 -428 -104 -493 -97 -34 3 -35 4 -35 48 0 25 4 244 9 488 l9
442 41 0 c22 0 96 -7 163 -15z m731 -110 c383 -53 347 -43 346 -90 -1 -22 -6
-98 -13 -168 -6 -70 -11 -178 -11 -240 0 -62 -4 -117 -8 -124 -4 -6 -64 -19
-132 -28 -69 -9 -217 -34 -329 -56 -112 -22 -207 -37 -211 -32 -4 4 -2 76 6
158 7 83 16 251 19 375 4 124 9 231 11 239 3 9 14 12 34 7 17 -3 146 -21 288
-41z m2007 -65 c5 -8 -47 -344 -61 -392 -3 -10 -22 -22 -42 -28 -51 -14 -448
-90 -472 -90 -19 0 -20 8 -20 238 0 130 4 242 8 249 15 23 573 45 587 23z
m-1442 -17 c103 -14 158 -15 450 -6 233 6 335 6 343 -1 9 -8 10 -79 5 -256
l-6 -245 -85 -17 c-169 -34 -280 -40 -534 -28 -133 6 -270 12 -306 13 l-65 2
3 150 c2 138 16 328 28 383 5 27 13 27 167 5z m1740 -3 c100 -12 260 -25 356
-30 124 -6 177 -12 187 -22 12 -11 11 -39 -2 -178 -9 -91 -22 -170 -28 -177
-8 -9 -41 -4 -136 19 -106 25 -152 31 -300 35 -113 4 -209 1 -273 -7 -54 -7
-101 -9 -105 -6 -5 6 41 322 54 369 7 22 22 22 247 -3z m783 -80 c126 -19 151
-20 297 -9 112 8 162 8 169 1 17 -17 100 -374 89 -385 -6 -6 -116 -7 -283 -4
-277 5 -448 23 -475 50 -10 10 -10 44 3 167 19 196 20 200 43 200 11 0 81 -9
157 -20z m-421 -340 c72 -17 135 -36 142 -43 9 -9 4 -79 -23 -307 -18 -162
-36 -301 -39 -307 -3 -10 -51 -13 -193 -13 -200 0 -336 -14 -561 -56 -138 -26
-154 -24 -145 15 2 9 33 169 69 355 36 187 70 345 76 352 6 7 42 18 82 24 40
7 79 13 87 15 8 2 96 2 195 0 159 -3 195 -7 310 -35z m-735 -27 c-1 -40 -143
-729 -152 -734 -37 -23 -404 -22 -418 1 -3 5 2 85 12 177 9 92 21 232 26 311
4 79 13 147 19 153 7 7 105 29 220 51 114 21 213 40 218 42 18 8 75 6 75 -1z
m1114 -48 c71 -10 197 -15 357 -15 185 0 249 -3 256 -12 18 -22 55 -195 49
-225 -14 -67 -36 -313 -36 -402 0 -62 -4 -101 -12 -109 -8 -8 -63 -12 -184
-12 -251 0 -380 26 -496 102 -28 18 -79 42 -112 54 l-61 21 1 59 c0 59 51 527
60 553 3 10 14 12 37 7 17 -4 81 -13 141 -21z m-1693 -221 c-18 -238 -42 -448
-53 -461 -7 -9 -34 -11 -97 -7 -163 12 -472 -32 -743 -105 -58 -15 -111 -25
-118 -21 -8 5 -8 29 1 96 6 49 14 211 18 359 l6 270 60 7 c33 4 143 3 245 -3
279 -14 398 -10 540 15 98 18 128 20 138 10 11 -9 12 -38 3 -160z m-1039 -114
c-3 -208 -23 -477 -37 -500 -6 -10 -82 -34 -364 -115 -215 -61 -367 -93 -381
-79 -5 5 3 95 20 209 15 110 38 288 50 395 18 155 27 198 41 211 11 10 98 32
231 58 272 52 321 59 388 58 l55 -2 -3 -235z m-740 98 c5 -13 -45 -423 -80
-661 -10 -70 -24 -133 -31 -140 -15 -15 -488 -24 -502 -10 -6 6 0 78 15 189
13 98 32 251 41 339 22 219 17 203 73 210 123 15 207 29 322 55 146 33 156 34
162 18z m-589 -92 c11 -29 -73 -700 -89 -716 -7 -7 -125 -7 -350 0 -379 12
-562 24 -578 40 -7 7 -1 73 17 207 15 109 31 241 37 293 17 148 9 140 147 140
65 0 161 7 213 16 135 22 251 31 436 33 130 1 163 -2 167 -13z m-1819 -2 c11
-4 16 -19 16 -43 0 -56 -48 -590 -54 -600 -3 -5 -52 -11 -108 -15 -155 -10
-260 -24 -393 -51 -66 -14 -125 -25 -132 -25 -19 0 -19 709 0 715 31 11 647
28 671 19z m633 -20 c94 -4 177 -10 183 -14 13 -8 10 -39 -41 -410 -17 -118
-34 -219 -38 -223 -5 -5 -51 -3 -102 4 -52 6 -211 12 -354 13 -255 2 -260 2
-263 22 -4 29 46 603 54 616 7 11 70 10 561 -8z m6002 -237 c19 -80 31 -152
28 -161 -5 -12 -20 -16 -58 -16 l-52 0 5 164 c8 243 23 246 77 13z m-1071 -46
c12 -7 9 -53 -17 -267 -17 -143 -38 -322 -46 -399 -8 -76 -19 -143 -23 -147
-5 -5 -57 -13 -118 -18 -60 -6 -138 -15 -174 -20 -92 -14 -187 -12 -247 3 -27
7 -95 39 -149 69 -55 31 -118 62 -141 68 l-43 11 0 75 c0 148 47 515 69 537
19 19 390 80 551 91 106 7 326 5 338 -3z m178 -42 c141 -75 172 -89 227 -104
80 -20 290 -37 414 -33 56 1 105 -1 109 -5 24 -23 -94 -618 -130 -655 -10 -10
-40 -9 -156 4 -85 9 -254 17 -405 19 l-260 3 2 69 c2 64 68 662 79 711 7 32
48 29 120 -9z m-1618 -61 c14 -18 -64 -578 -83 -597 -11 -11 -104 -15 -470
-22 -252 -5 -462 -6 -467 -2 -13 7 -6 92 27 313 17 122 28 167 40 176 30 22
431 115 575 133 109 14 366 13 378 -1z m488 -23 c-12 -46 -45 -334 -51 -447
-4 -65 -10 -118 -14 -118 -3 0 -104 -3 -223 -6 l-218 -4 1 32 c0 18 17 152 37
298 l38 265 204 5 c113 3 211 3 218 1 9 -2 11 -12 8 -26z m2074 -57 c19 -43
160 -663 155 -677 -5 -12 -38 -13 -201 -8 -116 3 -201 10 -207 16 -7 7 1 56
27 163 42 175 60 268 75 388 18 133 15 128 64 133 23 2 50 4 60 5 10 1 22 -8
27 -20z m-3614 -315 c-17 -122 -35 -226 -41 -231 -5 -5 -73 -17 -149 -26 -76
-10 -236 -37 -355 -62 -118 -24 -219 -40 -224 -35 -9 9 39 391 51 403 5 5 45
15 90 23 109 19 168 34 422 109 158 46 218 60 226 52 9 -8 3 -69 -20 -233z
m-3127 108 c11 -7 11 -36 -3 -183 -9 -98 -16 -269 -16 -391 l0 -217 -35 0
c-99 0 -349 76 -454 139 -36 21 -78 42 -93 45 l-28 6 0 260 c0 143 2 260 3
260 2 0 67 13 145 29 124 26 259 44 412 54 25 2 47 4 50 5 3 1 11 -2 19 -7z
m658 -2 c62 -7 117 -17 122 -23 6 -7 -2 -94 -20 -226 -16 -118 -32 -268 -35
-333 -4 -64 -12 -124 -18 -133 -8 -11 -53 -21 -146 -34 -197 -27 -494 -55
-513 -47 -37 14 -13 774 25 798 19 13 455 11 585 -2z m718 -49 c215 -7 394
-16 399 -20 12 -12 -51 -481 -67 -496 -10 -10 -226 -47 -777 -130 -85 -13
-158 -20 -163 -15 -19 19 55 658 79 677 8 7 35 8 76 3 35 -4 239 -13 453 -19z
m975 -27 c0 -42 -51 -398 -58 -404 -15 -14 -420 -79 -494 -79 l-31 0 7 63 c20
183 59 423 69 429 7 4 123 8 260 8 229 0 247 -1 247 -17z m2248 -275 c15 -20
15 -825 -1 -835 -6 -4 -67 -6 -134 -4 -67 1 -181 -3 -253 -9 -75 -7 -135 -9
-140 -4 -15 15 63 817 82 841 13 16 53 19 259 21 131 2 179 -1 187 -10z m-510
-11 c8 -9 6 -45 -4 -124 -8 -62 -27 -250 -43 -418 -15 -168 -31 -308 -34 -311
-4 -4 -75 -19 -159 -35 -84 -15 -209 -39 -278 -54 -92 -19 -171 -27 -296 -32
-201 -7 -178 -25 -195 152 -15 165 -5 329 42 693 7 53 18 100 26 108 12 11 63
14 271 15 222 1 614 12 648 17 6 1 16 -4 22 -11z m697 -33 c200 -113 245 -122
496 -94 96 11 191 20 212 20 36 0 37 -1 37 -37 0 -21 -7 -115 -15 -209 -8 -94
-17 -257 -21 -362 -4 -105 -11 -197 -15 -204 -6 -10 -49 -13 -181 -13 -164 0
-185 2 -398 44 -124 24 -231 48 -237 54 -18 13 -19 817 -1 835 16 16 52 6 123
-34z m-1709 6 c7 -7 2 -68 -13 -182 -26 -197 -40 -561 -26 -675 5 -40 7 -77 4
-82 -3 -5 -71 -14 -151 -20 -80 -6 -185 -20 -235 -31 -240 -52 -315 -64 -327
-52 -15 15 4 898 20 914 17 17 504 114 662 131 19 2 40 5 46 5 5 1 14 -2 20
-8z m3209 -90 c101 -13 130 -23 121 -45 -19 -51 -79 -346 -91 -455 -9 -74 -19
-138 -23 -142 -4 -4 -88 -21 -187 -38 -99 -17 -264 -52 -367 -78 -139 -34
-191 -43 -199 -35 -20 20 30 773 54 801 9 12 60 13 302 9 159 -3 335 -11 390
-17z m545 -38 l85 -7 16 -65 c55 -220 112 -480 106 -486 -3 -4 -44 -1 -89 7
-129 21 -245 17 -401 -15 -76 -15 -150 -26 -165 -24 -26 3 -27 4 -24 63 6 111
68 430 100 515 l10 26 138 -4 c77 -2 177 -7 224 -10z m-4547 -409 c-4 -484 -7
-521 -36 -533 -95 -40 -497 -77 -547 -50 -21 11 -22 16 -16 79 3 36 22 235 41
441 19 205 38 377 43 381 4 4 106 21 226 38 121 17 222 34 225 36 2 3 19 5 36
5 l32 0 -4 -397z m-577 243 c-3 -34 -15 -167 -26 -296 -28 -320 -48 -501 -55
-508 -3 -3 -63 9 -133 26 -151 38 -373 57 -584 50 -111 -4 -140 -2 -150 9 -15
18 -4 633 12 643 6 4 63 14 128 24 64 9 257 39 427 66 171 27 321 50 335 52
48 7 53 0 46 -66z m-2228 0 c87 -53 255 -109 390 -132 53 -9 102 -21 108 -28
8 -7 13 -113 15 -346 l4 -335 -40 -3 c-74 -6 -479 47 -567 74 -17 5 -18 33
-18 410 0 466 -11 431 108 360z m1230 -401 c2 -239 -1 -314 -10 -327 -8 -9
-64 -27 -138 -43 -69 -15 -163 -36 -210 -47 -47 -10 -133 -22 -192 -25 l-106
-6 -6 54 c-12 118 -15 626 -3 638 6 6 39 11 73 11 63 0 265 21 434 44 52 8
109 13 125 12 l30 -1 3 -310z m6215 -16 c71 -10 137 -27 137 -35 0 -2 18 -81
40 -175 22 -95 40 -183 40 -195 0 -13 -29 -81 -64 -151 -35 -71 -74 -157 -87
-193 -12 -36 -28 -68 -33 -72 -26 -18 -353 -3 -483 23 -59 12 -53 -3 -73 169
-6 52 -17 142 -25 200 -22 163 -30 346 -16 364 7 8 44 20 83 26 39 7 110 21
157 30 99 21 221 25 324 9z m-623 -126 c0 -81 18 -265 41 -418 19 -128 24
-217 14 -227 -3 -3 -79 11 -168 30 -158 34 -169 35 -410 38 -137 1 -251 5
-254 7 -2 3 -1 110 3 237 7 223 8 232 28 240 99 36 624 147 709 149 l37 1 0
-57z m-1703 -17 c10 -8 15 -104 19 -363 8 -407 22 -362 -121 -384 -102 -16
-491 -17 -506 -2 -10 10 56 697 70 723 11 21 60 31 210 40 159 9 311 3 328
-14z m302 -41 c213 -43 343 -58 476 -53 l100 3 0 -237 c0 -130 -3 -239 -6
-242 -17 -18 -778 -151 -791 -138 -4 4 -10 163 -14 355 l-7 347 32 0 c18 0
112 -16 210 -35z m-903 13 c5 -7 7 -29 6 -48 -5 -63 -62 -604 -67 -636 l-5
-31 -203 -6 c-112 -3 -275 -15 -366 -27 -90 -12 -167 -18 -171 -13 -4 4 -13
85 -19 180 -6 94 -20 224 -32 290 -11 65 -23 133 -26 151 l-6 32 49 0 c152 2
326 22 509 58 167 34 228 46 317 61 4 0 10 -5 14 -11z m-942 -117 c9 -14 42
-184 56 -286 7 -49 13 -155 14 -235 l1 -145 -50 -8 c-27 -5 -194 -37 -370 -72
-176 -35 -342 -65 -370 -67 l-50 -3 -3 125 c-3 113 20 453 37 555 l7 40 199
42 c110 23 229 47 265 51 88 13 257 14 264 3z m-1659 -85 c100 -22 207 -54
219 -66 12 -12 -56 -676 -71 -691 -5 -5 -52 -17 -104 -26 -100 -17 -405 -20
-619 -5 l-105 7 -3 160 c-2 92 3 228 12 320 8 88 18 194 22 235 3 41 11 79 18
83 20 14 554 0 631 -17z m-695 -45 c0 -27 -7 -113 -16 -192 -9 -79 -19 -234
-22 -344 l-7 -200 -180 4 c-99 2 -229 6 -290 10 l-110 6 -6 115 c-4 63 -8 212
-10 330 l-4 215 89 7 c81 7 300 48 436 83 30 7 70 14 88 14 32 1 32 1 32 -48z
m-1155 -1 c66 -11 192 -28 280 -36 88 -9 164 -20 169 -25 11 -10 28 -395 24
-549 l-3 -105 -100 -3 c-55 -1 -194 -6 -310 -11 -115 -4 -216 -6 -222 -4 -10
4 -13 89 -13 377 0 205 3 376 7 380 4 4 17 5 28 2 11 -3 74 -14 140 -26z
m2722 4 c3 -8 -2 -93 -12 -187 -10 -95 -21 -248 -24 -342 l-6 -170 -70 -6
c-113 -10 -543 -10 -550 0 -6 11 62 651 70 660 4 3 75 7 158 8 115 1 181 8
272 26 149 30 154 31 162 11z m4908 -127 c48 -192 62 -263 53 -274 -16 -19
-197 -18 -204 1 -11 28 112 296 136 296 5 0 12 -11 15 -23z m-1230 -197 c113
-13 396 -69 413 -83 9 -7 12 -88 10 -366 l-3 -356 -215 -12 c-118 -6 -288 -19
-377 -28 -190 -20 -268 -15 -279 18 -14 45 19 794 36 811 23 23 265 33 415 16z
m-480 -100 c-1 -121 -15 -569 -21 -648 -6 -71 -7 -73 -29 -68 -13 3 -54 24
-92 45 -107 62 -158 72 -405 78 l-216 6 -5 26 c-3 15 -11 129 -18 254 -11 196
-11 229 2 241 8 7 119 30 247 51 127 20 294 50 370 65 75 16 144 28 152 27 12
-2 15 -18 15 -77z m1117 -10 c46 -6 140 -10 210 -10 69 0 133 -3 142 -6 13 -5
16 -24 16 -99 0 -100 17 -189 54 -288 31 -84 90 -199 138 -271 23 -34 35 -63
30 -68 -5 -5 -102 0 -233 12 -123 12 -289 25 -369 28 l-145 7 -3 345 c-1 190
0 351 3 359 4 9 15 11 40 7 19 -4 72 -11 117 -16z m659 -22 c19 -16 175 -697
166 -722 -5 -12 -20 -16 -59 -16 -86 0 -94 6 -158 102 -124 185 -192 369 -194
526 -1 82 1 95 18 108 26 18 205 20 227 2z m-2619 -108 c14 -132 28 -444 20
-452 -9 -9 -386 -28 -578 -28 -99 0 -133 3 -137 13 -6 17 41 478 51 496 7 12
46 14 223 13 140 -1 241 3 294 12 122 21 119 22 127 -54z m-705 34 c6 -16 -33
-459 -43 -495 -4 -14 -34 -17 -217 -23 -116 -4 -268 -14 -336 -21 -68 -8 -128
-12 -132 -9 -5 3 -9 118 -9 255 l0 249 23 9 c18 7 90 17 332 45 17 1 108 4
203 5 152 1 173 -1 179 -15z m-781 -101 c9 -62 -2 -443 -13 -454 -5 -5 -139
-33 -299 -63 -438 -83 -469 -88 -500 -84 l-29 3 -8 239 c-10 273 -14 259 76
270 41 6 587 110 672 129 11 3 37 5 57 6 36 1 37 1 44 -46z m-905 -137 c0 -11
4 -120 8 -241 5 -124 5 -225 0 -231 -5 -6 -57 -17 -117 -23 -59 -7 -201 -26
-317 -42 -258 -36 -265 -36 -265 -7 0 80 54 535 65 546 10 11 81 15 306 21
162 3 300 5 307 3 6 -2 12 -14 13 -26z m-2222 5 c12 -8 13 -42 7 -208 -8 -235
-29 -509 -38 -519 -22 -21 -302 60 -433 126 -55 27 -110 50 -122 50 -55 0 -53
-9 -53 271 0 199 3 261 13 264 6 2 122 8 257 13 349 13 354 13 369 3z m633
-17 c22 -6 26 -55 34 -395 5 -210 3 -278 -6 -284 -6 -4 -94 -16 -193 -26 -204
-22 -422 -28 -438 -12 -7 7 -5 76 5 214 8 112 18 269 21 349 4 80 8 151 11
159 4 11 51 12 277 6 149 -3 279 -9 289 -11z m898 -21 c0 -64 -50 -537 -58
-545 -4 -4 -137 -25 -297 -48 -159 -22 -323 -45 -364 -51 -50 -7 -77 -7 -83
-1 -11 11 -32 626 -23 650 4 11 63 12 307 7 239 -5 321 -3 388 8 133 23 130
23 130 -20z m3599 -264 c45 -7 98 -28 180 -71 64 -33 119 -65 123 -72 4 -6 8
-49 8 -96 0 -47 7 -242 16 -433 10 -202 13 -352 8 -357 -11 -11 -321 -28 -569
-32 l-180 -3 -6 505 c-3 278 -9 513 -13 523 -5 10 -3 23 4 32 10 12 45 15 189
15 97 0 205 -5 240 -11z m-477 -74 c13 -120 20 -968 9 -985 -8 -12 -40 -15
-178 -15 -137 0 -212 6 -403 34 -129 18 -239 37 -244 42 -9 8 2 205 34 589 28
330 32 367 40 379 6 11 452 30 650 27 l85 -1 7 -70z m-798 47 c3 -5 -1 -71 -9
-148 -20 -192 -44 -503 -52 -662 -3 -73 -11 -139 -17 -147 -10 -12 -37 -11
-201 11 -271 35 -498 73 -509 84 -12 12 3 157 49 460 19 124 37 256 41 293 8
83 4 80 169 96 66 6 134 13 150 15 66 7 374 5 379 -2z m-746 -82 c1 -19 -6
-96 -17 -170 -17 -117 -53 -368 -78 -550 -8 -53 -9 -55 -37 -53 -17 1 -125 12
-240 23 -292 29 -419 48 -432 66 -16 20 -25 555 -10 570 6 6 47 17 91 24 75
11 563 101 650 120 61 13 70 9 73 -30z m3250 -385 c3 -374 -7 -572 -28 -585
-5 -3 -108 4 -228 17 -119 13 -296 25 -392 26 -97 2 -180 6 -186 10 -7 4 -13
84 -17 214 -4 114 -11 306 -17 426 -6 120 -8 222 -5 227 3 5 52 9 108 9 57 -1
145 4 197 11 163 20 290 28 430 26 l135 -1 3 -380z m552 361 c74 -8 174 -17
222 -21 l86 -7 57 -66 c79 -93 117 -175 123 -269 6 -93 -13 -174 -85 -357 -29
-77 -62 -173 -73 -213 -11 -41 -22 -78 -25 -83 -11 -18 -161 -11 -332 16 -92
14 -240 31 -328 37 l-160 12 3 30 c2 17 5 230 8 475 3 245 7 451 10 459 4 12
35 13 182 8 97 -4 238 -13 312 -21z m498 -34 c7 -5 53 -183 103 -403 127 -556
126 -553 122 -564 -3 -11 -347 -15 -357 -4 -9 9 37 160 83 273 66 161 85 238
85 346 0 116 -23 181 -95 276 -28 35 -47 69 -44 74 7 12 85 13 103 2z m-5166
-337 c3 -152 2 -274 -3 -279 -7 -8 -189 8 -229 21 -8 2 -125 9 -260 14 -134 5
-248 13 -252 17 -12 12 21 395 35 408 7 7 116 26 242 43 127 17 259 35 295 40
36 5 88 8 115 7 l50 -1 7 -270z m-2819 214 c20 -5 63 -25 95 -44 65 -39 204
-86 342 -116 52 -11 98 -23 102 -27 10 -10 -13 -485 -24 -499 -6 -8 -33 -13
-62 -13 -65 0 -493 47 -506 55 -11 7 -14 637 -3 648 8 9 11 9 56 -4z m2046
-81 c-1 -80 -24 -347 -31 -354 -4 -3 -92 2 -195 11 -196 18 -383 16 -456 -5
-66 -19 -67 -17 -67 139 0 90 4 142 11 147 6 3 119 21 252 40 133 18 283 40
332 47 50 8 105 15 123 16 31 1 32 0 31 -41z m-796 -213 c4 -77 5 -149 2 -160
-4 -18 -119 -97 -204 -140 -95 -48 -238 -83 -380 -92 l-94 -6 6 234 c3 129 9
243 13 252 5 15 23 17 133 18 69 0 198 9 286 19 88 9 176 17 195 16 l35 -1 8
-140z m592 -167 c72 -6 140 -15 151 -19 21 -8 22 -10 16 -202 -5 -193 6 -365
32 -514 7 -40 9 -79 4 -85 -18 -31 -687 -17 -725 14 -10 8 -13 99 -13 395 l0
384 35 15 c81 34 219 37 500 12z m790 -52 c72 -10 144 -21 160 -25 l30 -7 6
-100 c9 -129 10 -563 3 -591 -7 -27 -25 -29 -419 -41 -211 -7 -293 -6 -302 2
-16 16 -43 197 -53 366 -10 162 0 408 17 418 19 12 421 -5 558 -22z m-1372
-168 c10 -228 8 -533 -3 -564 -10 -24 -14 -26 -48 -20 -20 3 -120 11 -222 16
-285 16 -439 31 -449 44 -6 7 -4 56 4 131 7 66 16 166 20 221 4 56 10 106 14
112 3 5 56 15 116 21 200 21 349 70 476 155 86 58 85 59 92 -116z m1742 112
c33 -5 172 -21 309 -35 137 -14 255 -30 261 -35 8 -6 12 -73 13 -207 1 -109 7
-256 12 -328 6 -79 6 -133 1 -138 -6 -6 -84 1 -203 18 -107 16 -265 31 -353
34 l-160 6 -3 348 -2 347 32 0 c18 0 60 -4 93 -10z m845 -105 c91 -14 242 -36
335 -48 l170 -22 7 -105 c12 -178 28 -310 54 -439 14 -68 21 -128 17 -132 -5
-5 -100 5 -213 21 -113 16 -281 38 -374 50 -93 11 -174 24 -179 29 -6 6 -13
47 -18 93 -11 119 -23 542 -16 562 8 21 23 21 217 -9z m-3670 -35 c96 -11 209
-20 251 -20 91 0 100 -7 94 -76 -3 -27 -12 -123 -21 -214 -9 -91 -20 -169 -24
-174 -6 -6 -44 -4 -97 4 -73 11 -271 14 -408 7 l-30 -2 -3 248 -2 247 32 0
c18 0 112 -9 208 -20z m4517 -80 c167 -24 247 -30 379 -30 l167 0 -7 -197 c-7
-228 -30 -471 -45 -486 -7 -7 -62 -5 -173 6 -90 9 -234 24 -322 33 -87 8 -169
19 -181 24 -19 7 -26 25 -45 116 -47 223 -76 548 -51 563 13 9 1 10 278 -29z
m1952 -15 c135 -13 248 -28 253 -33 5 -5 -9 -92 -32 -198 -53 -247 -70 -358
-70 -474 0 -52 -5 -102 -10 -110 -13 -21 -272 -17 -515 7 l-180 18 3 400 c2
220 6 403 9 408 9 15 308 6 542 -18z m-601 -265 c1 -151 -1 -329 -5 -395 l-8
-120 -130 -3 c-177 -4 -623 42 -649 68 -6 6 -6 48 2 122 6 62 17 214 23 338 7
124 16 231 22 238 7 8 48 12 136 13 69 1 189 5 266 9 77 4 185 6 240 6 l100
-1 3 -275z m1387 195 c94 -14 208 -28 255 -30 47 -2 89 -4 93 -5 5 0 6 -28 2
-62 -4 -35 -11 -133 -14 -218 l-6 -155 -139 -12 c-253 -22 -381 -59 -551 -159
-103 -61 -165 -91 -200 -96 -19 -3 -20 4 -23 92 -2 53 4 139 13 195 18 116 92
461 101 477 11 18 281 2 469 -27z m767 -21 c15 -3 29 -13 32 -22 15 -48 96
-429 96 -449 0 -28 1 -28 -179 -8 -75 9 -179 19 -231 23 l-95 7 -3 129 c-3
139 10 292 26 308 20 20 265 29 354 12z m-7838 -328 c54 -8 102 -18 106 -23 5
-4 5 -66 2 -138 -4 -71 -2 -260 5 -420 10 -228 10 -292 0 -301 -8 -9 -29 -9
-72 -3 -33 5 -150 11 -260 14 l-200 5 0 432 0 433 70 6 c130 10 250 9 349 -5z
m393 -46 c382 -25 478 -33 490 -37 16 -6 6 -1042 -11 -1059 -13 -14 -127 -2
-195 21 -26 8 -102 47 -171 85 -74 42 -160 81 -210 96 -47 14 -94 29 -106 34
-20 8 -21 18 -30 237 -5 125 -8 315 -8 420 1 212 6 229 56 219 15 -3 98 -10
185 -16z m2064 -505 c-2 -259 -7 -474 -12 -479 -16 -18 -527 -82 -541 -67 -4
3 -9 128 -12 276 -4 287 -8 315 -58 429 -17 38 -42 117 -56 174 -29 120 -29
121 58 123 30 1 145 5 255 9 110 4 238 6 285 6 l85 -1 -4 -470z m565 445 c120
-17 220 -33 223 -36 5 -5 27 -174 73 -576 20 -174 21 -199 8 -212 -18 -17
-169 -37 -488 -66 -123 -11 -248 -23 -277 -26 -53 -6 -54 -6 -61 21 -8 32 12
900 21 915 13 22 277 11 501 -20z m-1544 -5 c151 4 218 3 223 -5 4 -6 19 -61
35 -123 15 -62 41 -143 59 -181 45 -100 52 -162 49 -436 l-3 -245 -165 -6
c-91 -3 -290 -17 -443 -29 -258 -22 -279 -23 -294 -7 -15 15 -16 57 -6 528 7
340 14 513 21 518 6 3 77 0 159 -7 100 -9 219 -11 365 -7z m2026 -55 c206 -24
523 -69 558 -79 23 -6 31 -19 54 -86 15 -44 37 -101 48 -126 36 -77 57 -344
29 -367 -7 -6 -96 -20 -197 -32 -102 -11 -277 -32 -389 -46 -122 -15 -207 -22
-212 -17 -5 5 -16 70 -24 144 -8 74 -23 206 -34 294 -29 232 -37 311 -33 324
5 14 9 14 200 -9z m3907 -95 c4 -52 6 -171 3 -265 -3 -135 -7 -173 -19 -185
-20 -20 -193 -42 -399 -50 -85 -3 -231 -13 -323 -21 -92 -8 -172 -12 -177 -9
-6 4 -10 78 -10 180 l0 173 62 21 c34 11 107 48 162 80 56 33 128 72 160 86
110 48 286 81 448 84 l86 1 7 -95z m376 75 c101 -12 188 -25 193 -30 16 -16
117 -483 107 -493 -6 -6 -72 -5 -175 3 -139 11 -340 10 -430 -2 -17 -3 -18 11
-21 270 l-3 272 72 0 c40 0 156 -9 257 -20z m-3361 -100 c272 -25 383 -39 393
-49 4 -4 1 -56 -8 -117 -8 -60 -17 -157 -21 -215 l-6 -106 -116 -7 c-65 -3
-180 -15 -257 -26 -172 -24 -165 -28 -165 115 0 126 -12 195 -52 288 -55 130
-57 153 -10 143 15 -3 124 -15 242 -26z m645 -79 c181 -25 371 -41 494 -41 70
0 100 -4 103 -12 5 -16 -10 -264 -20 -333 l-7 -50 -170 3 c-295 6 -613 19
-624 26 -6 4 -11 37 -11 74 0 69 28 330 36 344 8 12 46 10 199 -11z m914 -66
c85 -8 218 -15 296 -15 121 0 144 -2 149 -16 3 -9 6 -84 6 -169 0 -120 -3
-155 -14 -164 -21 -17 -287 -28 -518 -21 -108 3 -200 8 -203 12 -10 10 16 371
28 386 6 8 25 11 56 7 25 -3 115 -12 200 -20z"/>
</g>
</svg>
